<?xml version="1.0" encoding="UTF-8"?><svg xmlns="http://www.w3.org/2000/svg" viewBox="0 0 10.33 8.84"><defs><style>.d{fill:#e29c4d;}</style></defs><g id="a"/><g id="b"><g id="c"><path class="d" d="M10.25,3.68c-.56-1.72-1.93-3.02-3.67-3.49C5.21-.18,3.77,0,2.54,.71,1.31,1.42,.42,2.56,.06,3.93,.02,4.06,0,4.19,0,4.33c0,.82,.66,1.5,1.49,1.5h1.28c.28,.39,.73,.64,1.24,.64h1.34c.15,.55,.64,.97,1.24,.97h.44c.31,0,.56,.25,.56,.56v.34c0,.28,.22,.5,.5,.5s.5-.22,.5-.5v-.34c0-.86-.7-1.56-1.56-1.56h-.44c-.17,0-.31-.14-.31-.3s.14-.31,.3-.31h2.07c.16,0,.33-.02,.49-.07,.88-.26,1.38-1.19,1.11-2.08Zm-1.4,1.12c-.06,.02-.13,.03-.2,.03h-2.08c-.47,0-.87,.27-1.1,.64h-1.47c-.29,0-.52-.23-.52-.52s.23-.52,.52-.52h3.14c.28,0,.5-.22,.5-.5s-.22-.5-.5-.5h-3.14c-.8,0-1.45,.62-1.51,1.4H1.49c-.27,0-.49-.22-.49-.49,0-.04,0-.09,.02-.14C1.64,1.9,4.02,.53,6.32,1.15c1.42,.38,2.53,1.44,2.98,2.83,.1,.35-.1,.72-.44,.82Z"/></g></g></svg>