<?xml version="1.0" encoding="UTF-8"?><svg xmlns="http://www.w3.org/2000/svg" viewBox="0 0 7.24 8.84"><defs><style>.e{fill:#9bbe6c;}</style></defs><g id="a"/><g id="b"><g id="c"><g id="d"><path class="e" d="M3.72,8.84c-.98,0-1.9-.33-2.6-.93-.72-.62-1.12-1.45-1.12-2.34v-.72c0-.88,.72-1.6,1.6-1.6h.15v-.72C1.75,1.14,3.03,0,4.61,0c1.32-.09,2.51,.93,2.63,2.29v3.46c0,1.7-1.57,3.09-3.51,3.09h0ZM1.61,4.25c-.34,0-.61,.27-.61,.6v.72c0,.59,.27,1.15,.77,1.58,.52,.44,1.21,.69,1.95,.69h0c1.38,0,2.51-.94,2.51-2.09V2.33c-.06-.77-.77-1.4-1.59-1.33-1.06,0-1.89,.69-1.89,1.53v3.05c0,.28-.22,.5-.5,.5s-.5-.22-.5-.5v-1.33h-.14Z"/></g></g></g></svg>