<?xml version="1.0" encoding="UTF-8"?><svg xmlns="http://www.w3.org/2000/svg" viewBox="0 0 14.83 14.83"><defs><style>.e{fill:#fff;}.f{fill:#66a142;}</style></defs><g id="a"/><g id="b"><g id="c"><g><circle class="f" cx="7.42" cy="7.42" r="7.42"/><g id="d"><path class="e" d="M7.52,11.83c-1.07,0-2.09-.4-2.79-1.11-.6-.6-.93-1.36-.93-2.16v-.72c0-.88,.72-1.6,1.6-1.6h.15v-.72c0-1.39,1.28-2.53,2.86-2.53,1.32-.09,2.52,.93,2.63,2.29v3.46c0,1.7-1.57,3.09-3.51,3.09h0Zm-2.11-4.58c-.34,0-.61,.27-.61,.6v.72c0,.53,.22,1.05,.63,1.45,.52,.52,1.28,.82,2.09,.82h0c1.38,0,2.51-.94,2.51-2.09v-3.42c-.06-.77-.79-1.4-1.59-1.33-1.06,0-1.89,.69-1.89,1.53v3.05h-1v-1.33h-.14Z"/></g></g></g></g></svg>