<?xml version="1.0" encoding="UTF-8"?><svg xmlns="http://www.w3.org/2000/svg" viewBox="0 0 14.83 14.83"><defs><style>.d{fill:#66a142;}</style></defs><g id="a"/><g id="b"><g id="c"><g><path class="d" d="M7.42,0C3.32,0,0,3.32,0,7.42s3.32,7.42,7.42,7.42,7.42-3.32,7.42-7.42S11.51,0,7.42,0Zm.11,11.83h0c-1.07,0-2.09-.4-2.79-1.11-.6-.6-.93-1.36-.93-2.16v-.72c0-.43,.17-.83,.47-1.13s.7-.47,1.13-.47h.15v-.72c0-1.39,1.28-2.53,2.86-2.53,1.32-.09,2.51,.93,2.63,2.29v3.46c0,1.7-1.57,3.09-3.51,3.09Z"/><path class="d" d="M8.44,4c-1.06,0-1.89,.69-1.89,1.53v3.05c0,.28-.22,.5-.5,.5s-.5-.22-.5-.5v-1.33h-.15c-.17,0-.32,.06-.43,.17-.11,.11-.17,.26-.17,.42v.72c0,.53,.22,1.05,.63,1.45,.52,.52,1.28,.82,2.09,.82h0c1.38,0,2.51-.94,2.51-2.09v-3.42c-.06-.77-.78-1.39-1.59-1.33Z"/></g></g></g></svg>