<?xml version="1.0" encoding="UTF-8"?><svg xmlns="http://www.w3.org/2000/svg" viewBox="0 0 14.83 14.83"><defs><style>.d{fill:#8a181b;}</style></defs><g id="a"/><g id="b"><g id="c"><g><path class="d" d="M7.8,5.59c-.09,.09-.22,.14-.35,.14s-.35-.05-.45-.15c-.67-.67-1.25-.86-1.71-.86-.59,0-.96,.32-1.03,.39-.92,.92-.51,2.1,.18,2.89l.52,.59c.83,.94,1.66,1.88,2.46,2.79,1.01-1.14,2.02-2.28,2.99-3.38,.64-.75,1.06-1.95,.12-2.9-.11-.11-1.17-1.04-2.73,.49Z"/><path class="d" d="M7.42,0C3.32,0,0,3.32,0,7.42s3.32,7.42,7.42,7.42,7.42-3.32,7.42-7.42S11.51,0,7.42,0Zm3.75,8.65c-1.07,1.21-2.18,2.47-3.29,3.73-.1,.11-.23,.17-.38,.17h-.15c-.14,0-.28-.06-.37-.17-.89-1.02-1.83-2.07-2.76-3.13l-.53-.59c-1.22-1.41-1.27-3.12-.12-4.27,.02-.02,1.72-1.62,3.84,.2,2.16-1.83,3.82-.22,3.83-.2,1.16,1.16,1.13,2.87-.07,4.26Z"/></g></g></g></svg>