<?xml version="1.0" encoding="UTF-8"?><svg xmlns="http://www.w3.org/2000/svg" viewBox="0 0 9.35 8.83"><defs><style>.e{fill:#971b1e;}</style></defs><g id="a"/><g id="b"><g id="c"><g id="d"><path class="e" d="M4.76,8.83h-.15c-.14,0-.28-.06-.37-.17-1-1.13-2.04-2.31-3.08-3.49l-.21-.24C-.27,3.53-.32,1.81,.82,.67c.02-.02,1.72-1.62,3.84,.2,2.16-1.83,3.82-.22,3.83-.2,1.16,1.16,1.13,2.87-.07,4.26-1.07,1.21-2.18,2.47-3.29,3.73-.09,.11-.23,.17-.37,.17ZM2.55,1c-.59,0-.96,.32-1.03,.39-.92,.92-.51,2.1,.18,2.89l.21,.23c.94,1.06,1.87,2.12,2.78,3.15,1.01-1.14,2.02-2.28,2.99-3.38,.64-.75,1.06-1.95,.12-2.9-.11-.11-1.17-1.03-2.73,.49-.09,.09-.22,.14-.35,.14s-.35-.05-.45-.15c-.67-.67-1.25-.86-1.71-.86Z"/></g></g></g></svg>