<svg xmlns="http://www.w3.org/2000/svg" viewBox="0 0 23.59 23.59"><defs><clipPath id="prefix__e"><path fill="none" d="M0 0h23.59v23.59H0z"/></clipPath><style>.prefix__i{fill:#cb9f68}</style></defs><g id="prefix__b"><g id="prefix__c"><g clip-path="url(#prefix__e)" id="prefix__d"><g id="prefix__f"><path id="prefix__g" class="prefix__i" d="M11.79 5.9c-3.26 0-5.9 2.64-5.9 5.9 0 3.26 2.64 5.9 5.9 5.9 3.26 0 5.9-2.64 5.9-5.9 0-3.26-2.64-5.9-5.9-5.9m0 8.98c-1.7 0-3.08-1.38-3.08-3.08s1.38-3.08 3.08-3.08c1.7 0 3.08 1.38 3.08 3.08 0 1.7-1.38 3.08-3.08 3.08"/><path id="prefix__h" class="prefix__i" d="M17.69 5.9c0-3.26-2.64-5.9-5.9-5.9S5.9 2.64 5.9 5.9C2.64 5.9 0 8.54 0 11.79s2.64 5.9 5.9 5.9c0 3.26 2.64 5.9 5.9 5.9s5.9-2.64 5.9-5.9c3.26 0 5.9-2.64 5.9-5.9s-2.64-5.9-5.9-5.9m0 8.98c-.12 0-.23 0-.35-.02a6.343 6.343 0 01-2.49 2.49c.01.12.02.23.02.35 0 1.7-1.38 3.08-3.08 3.08s-3.08-1.38-3.08-3.08c0-.12 0-.23.02-.35a6.343 6.343 0 01-2.49-2.49c-.12.01-.23.02-.35.02-1.7 0-3.08-1.38-3.08-3.08S4.2 8.71 5.9 8.71c.12 0 .23 0 .35.02a6.343 6.343 0 012.49-2.49 3.081 3.081 0 013.06-3.43c1.7 0 3.08 1.38 3.08 3.08 0 .12 0 .23-.02.35 1.05.58 1.91 1.44 2.49 2.49.12-.01.23-.02.35-.02 1.7 0 3.08 1.38 3.08 3.08s-1.38 3.08-3.08 3.08"/></g></g></g></g></svg>