<?xml version="1.0" encoding="UTF-8"?><svg xmlns="http://www.w3.org/2000/svg" xmlns:xlink="http://www.w3.org/1999/xlink" viewBox="0 0 23.59 23.59"><defs><style>.i{fill:#fff;}.j{clip-path:url(#e);}.k{fill:none;}</style><clipPath id="e"><rect class="k" width="23.59" height="23.59"/></clipPath></defs><g id="a"/><g id="b"><g id="c"><g id="d" transform="translate(0 0)"><g class="j"><g id="f" transform="translate(0 0)"><path id="g" class="i" d="M11.79,5.9c-3.26,0-5.9,2.64-5.9,5.9,0,3.26,2.64,5.9,5.9,5.9,3.26,0,5.9-2.64,5.9-5.9,0-3.26-2.64-5.9-5.9-5.9m0,8.98c-1.7,0-3.08-1.38-3.08-3.08s1.38-3.08,3.08-3.08c1.7,0,3.08,1.38,3.08,3.08,0,1.7-1.38,3.08-3.08,3.08"/><path id="h" class="i" d="M17.69,5.9C17.69,2.64,15.05,0,11.79,0S5.9,2.64,5.9,5.9C2.64,5.9,0,8.54,0,11.79s2.64,5.9,5.9,5.9c0,3.26,2.64,5.9,5.9,5.9s5.9-2.64,5.9-5.9c3.26,0,5.9-2.64,5.9-5.9s-2.64-5.9-5.9-5.9m0,8.98c-.12,0-.23,0-.35-.02-.58,1.05-1.44,1.91-2.49,2.49,.01,.12,.02,.23,.02,.35,0,1.7-1.38,3.08-3.08,3.08s-3.08-1.38-3.08-3.08c0-.12,0-.23,.02-.35-1.05-.58-1.91-1.44-2.49-2.49-.12,.01-.23,.02-.35,.02-1.7,0-3.08-1.38-3.08-3.08s1.38-3.08,3.08-3.08c.12,0,.23,0,.35,.02,.58-1.05,1.44-1.91,2.49-2.49-.01-.11-.02-.23-.02-.35,0-1.7,1.38-3.08,3.08-3.08s3.08,1.38,3.08,3.08c0,.12,0,.23-.02,.35,1.05,.58,1.91,1.44,2.49,2.49,.12-.01,.23-.02,.35-.02,1.7,0,3.08,1.38,3.08,3.08s-1.38,3.08-3.08,3.08"/></g></g></g></g></g></svg>