<?xml version="1.0" encoding="UTF-8"?><svg xmlns="http://www.w3.org/2000/svg" viewBox="0 0 13.36 12.74"><defs><style>.f{fill:#b2c4c7;}</style></defs><g id="a"/><g id="b"><g id="c"><g id="d" transform="translate(0 0)"><path id="e" class="f" d="M13.34,4.84c-.05-.14-.17-.24-.31-.27l-4.14-.6L7.03,.22c-.1-.19-.33-.27-.52-.18-.08,.04-.14,.1-.18,.18l-1.85,3.75L.34,4.57c-.21,.03-.36,.23-.33,.44,.01,.09,.05,.16,.11,.22l3,2.92-.71,4.12c-.04,.21,.11,.42,.32,.45,.08,.01,.17,0,.25-.04l3.7-1.95,3.7,1.95c.19,.1,.43,.03,.53-.16,.04-.08,.05-.16,.04-.25l-.71-4.12,3-2.92c.11-.1,.15-.26,.1-.4Z"/></g></g></g></svg>